<?xml version="1.0" encoding="UTF-8" standalone="no"?><!-- Generator: Gravit.io --><svg xmlns="http://www.w3.org/2000/svg" xmlns:xlink="http://www.w3.org/1999/xlink" style="isolation:isolate" viewBox="0 0 200 200" width="200pt" height="200pt"><defs><clipPath id="_clipPath_umqvo2uvw10V4xCQl66FhD6nAGG5oHgw"><rect width="200" height="200"/></clipPath></defs><g clip-path="url(#_clipPath_umqvo2uvw10V4xCQl66FhD6nAGG5oHgw)"><circle vector-effect="non-scaling-stroke" cx="100" cy="100" r="64" fill="rgb(0,0,255)"/><circle vector-effect="non-scaling-stroke" cx="29.10395667005149" cy="28.498911220637424" r="17.513263199452936" fill="rgb(0,0,255)"/><circle vector-effect="non-scaling-stroke" cx="169.48673680054708" cy="173.48673680054708" r="17.513263199452922" fill="rgb(0,0,255)"/><circle vector-effect="non-scaling-stroke" cx="172.51326319945292" cy="36" r="17.513263199452922" fill="rgb(0,0,255)"/><circle vector-effect="non-scaling-stroke" cx="29.10395667005149" cy="164" r="17.513263199452936" fill="rgb(0,0,255)"/><circle vector-effect="non-scaling-stroke" cx="20.795346735299276" cy="76.79534673529928" r="12.20465326470072" fill="rgb(0,0,255)"/><circle vector-effect="non-scaling-stroke" cx="184.71791646415366" cy="87.79534673529928" r="12.20465326470071" fill="rgb(0,0,255)"/><circle vector-effect="non-scaling-stroke" cx="121.20465326470072" cy="181.51326319945292" r="12.204653264700724" fill="rgb(0,0,255)"/><circle vector-effect="non-scaling-stroke" cx="121.20465326470072" cy="23.190301285885212" r="12.204653264700724" fill="rgb(0,0,255)"/><circle vector-effect="non-scaling-stroke" cx="76.20465326470072" cy="20.190301285885212" r="9.204653264700724" fill="rgb(0,0,255)"/><circle vector-effect="non-scaling-stroke" cx="23.795346735299276" cy="120.79534673529928" r="9.204653264700724" fill="rgb(0,0,255)"/><circle vector-effect="non-scaling-stroke" cx="76.20465326470072" cy="178.51326319945292" r="9.204653264700724" fill="rgb(0,0,255)"/><circle vector-effect="non-scaling-stroke" cx="175.51326319945292" cy="130" r="9.20465326470071" fill="rgb(0,0,255)"/><path d=" M 124 31 L 82 178 L 72 174 L 115 26 L 124 31 Z " fill="rgb(0,0,255)"/><path d=" M 41 31 L 172 165 L 161 174 L 32 39 L 41 31 Z " fill="rgb(0,0,255)"/><path d=" M 161 39 L 32 154 L 41 165 L 169 48 L 161 39 Z " fill="rgb(0,0,255)"/><path d=" M 72 26 L 115 182 L 127 178 L 79 22 L 72 26 Z " fill="rgb(0,0,255)"/><path d=" M 22 72 L 178 127 L 174 134 L 19 81 L 22 72 Z " fill="rgb(0,0,255)"/><path d=" M 178 81 L 25 117 L 25 124 L 182 94 L 178 81 Z " fill="rgb(0,0,255)"/><circle vector-effect="non-scaling-stroke" cx="90.5" cy="72.01326319945294" r="18.5" fill="rgb(235,235,235)"/><circle vector-effect="non-scaling-stroke" cx="122.24336840027354" cy="112.25663159972645" r="21.74336840027354" fill="rgb(235,235,235)"/><circle vector-effect="non-scaling-stroke" cx="76.20465326470071" cy="117.64767336764965" r="15.147673367649634" fill="rgb(235,235,235)"/><circle vector-effect="non-scaling-stroke" cx="180.51326319945292" cy="33.498911220637424" r="5" fill="rgb(0,255,255)"/><circle vector-effect="non-scaling-stroke" cx="174.4867368005471" cy="168.48673680054708" r="5" fill="rgb(0,255,255)"/><circle vector-effect="non-scaling-stroke" cx="36.00000000000003" cy="26" r="5" fill="rgb(0,255,255)"/><circle vector-effect="non-scaling-stroke" cx="124.00000000000003" cy="64.59069347059855" r="5" fill="rgb(0,255,255)"/><circle vector-effect="non-scaling-stroke" cx="143.98673680054708" cy="77.01326319945294" r="5" fill="rgb(0,255,255)"/><circle vector-effect="non-scaling-stroke" cx="124.00000000000003" cy="82.01326319945294" r="5" fill="rgb(0,255,255)"/><circle vector-effect="non-scaling-stroke" cx="37" cy="164" r="5" fill="rgb(0,255,255)"/></g></svg>